<svg width="40" height="40" viewBox="0 0 40 40" xmlns="http://www.w3.org/2000/svg"><title>CB629A1D-798A-43E8-852A-E99B69055E4C</title><path d="M39.914 19.563a20.091 20.091 0 0 1-.319 4.044l-4.238-1.09c.16-.988.223-1.967.196-2.954h4.361zm-1.047 6.864l-4.24-1.091a15.566 15.566 0 0 1-1.298 2.723l3.56 2.537a19.927 19.927 0 0 0 1.978-4.169zm-7.286 9.834a20.09 20.09 0 0 0 3.592-3.315l-3.571-2.543a15.714 15.714 0 0 1-2.233 2.065l2.212 3.793zM0 20c0 11.046 8.936 20 19.96 20 3.295 0 6.403-.8 9.142-2.217l-2.204-3.78a15.508 15.508 0 0 1-6.938 1.628c-8.616 0-15.6-6.998-15.6-15.631s6.984-15.631 15.6-15.631c4.243 0 8.477 1.698 11.289 4.452l-3.475 3.481L40 14.538l-2.232-12.25-3.436 3.443C30.732 2.186 25.407 0 19.96 0 8.936 0 0 8.954 0 20zm25.09 5.78v-2.545h-4.638v-2.32l4.868-6.547h2.304v6.611h1.458v2.256h-1.458v2.544h-2.533zm0-4.8v-3.04l-2.258 3.038h2.259zm-13.893 4.8c0-1.723.494-3.063 2.208-4.336 2.02-1.498 3.56-2.087 3.56-3.474 0-.917-.551-1.487-1.437-1.487-1.235 0-1.53 1.295-1.53 2.528h-2.543c-.107-3.193 1.701-4.863 4.183-4.863 2.3 0 3.97 1.535 3.97 3.649 0 1.055-.327 1.892-1.03 2.633-1.112 1.174-2.777 1.767-3.87 3.015h4.963v2.335h-8.474z" fill="#FF7575" fill-rule="evenodd"/></svg>