<svg width="262" height="183" viewBox="0 0 262 183" xmlns="http://www.w3.org/2000/svg"><title>62B7CED8-38F2-4978-94EA-BD620E20A750</title><g fill="none" fill-rule="evenodd"><path d="M136 41c-16.56 0-30 13.44-30 30 0 16.56 13.44 30 30 30 16.56 0 30-13.44 30-30 0-16.56-13.44-30-30-30zm0 9c4.98 0 9 4.02 9 9s-4.02 9-9 9-9-4.02-9-9 4.02-9 9-9zm0 43c-7.5 0-14.13-3.86-18-9.711.09-6.002 12-9.289 18-9.289 5.97 0 17.91 3.287 18 9.289-3.87 5.85-10.5 9.711-18 9.711z" fill-opacity=".7" fill="#000"/><path d="M244.51 30.514c-12.733-16.296-59.616-25.603-87.707 3.681" stroke="#D4D4D4" stroke-width="3"/><path fill="#D8D8D8" d="M153.64 37.638l20.749-5.341-12.573-14.463z"/><path d="M27.49 30.514c12.733-16.296 59.616-25.603 87.707 3.681" stroke="#D4D4D4" stroke-width="3"/><path fill="#D8D8D8" d="M118.36 37.638l-20.749-5.341 12.573-14.463z"/><path d="M44.416 161.915c-7.072-19.434 9.88-64.125 49.6-72.43" stroke="#D4D4D4" stroke-width="3"/><path fill="#D8D8D8" d="M98.612 88.627l-15.525 14.766-5.603-18.327z"/><path d="M227.958 161.915c7.072-19.434-9.88-64.125-49.6-72.43" stroke="#D4D4D4" stroke-width="3"/><path fill="#D8D8D8" d="M173.762 88.627l15.525 14.766 5.603-18.327z"/><g transform="translate(54)"><circle fill="#FFF" cx="15" cy="15" r="15"/><path d="M23.798 15.016v6.98c0 .964-.788 1.745-1.76 1.745H7.962c-.972 0-1.76-.78-1.76-1.745v-6.98a.876.876 0 0 1-.88-.873v-2.617c0-.964.788-1.745 1.76-1.745h2.789a2.598 2.598 0 0 1-.15-.873 2.629 2.629 0 0 1 2.64-2.618c.88 0 1.654.437 2.138 1.082v-.008l.501.671.501-.671v.008A2.676 2.676 0 0 1 17.64 6.29a2.629 2.629 0 0 1 2.64 2.618c0 .305-.053.602-.15.873h2.789c.972 0 1.76.78 1.76 1.745v2.617a.876.876 0 0 1-.88.873zm-15.836 6.98h6.158v-6.98H7.962v6.98zm14.076 0v-6.98H15.88v6.98h6.158zm-9.677-13.96c-.486 0-.88.39-.88.872s.394.873.88.873.88-.391.88-.873a.876.876 0 0 0-.88-.873zm5.278 0c-.486 0-.88.39-.88.872s.394.873.88.873.88-.391.88-.873a.876.876 0 0 0-.88-.873zm-10.557 3.49v1.745h7.038v-1.745H7.082zm8.798 0v1.745h7.038v-1.745H15.88z" fill="#FF7575"/></g><g transform="translate(193 1)"><circle fill="#FFF" cx="15" cy="15" r="15"/><path d="M23.798 15.016v6.98c0 .964-.788 1.745-1.76 1.745H7.962c-.972 0-1.76-.78-1.76-1.745v-6.98a.876.876 0 0 1-.88-.873v-2.617c0-.964.788-1.745 1.76-1.745h2.789a2.598 2.598 0 0 1-.15-.873 2.629 2.629 0 0 1 2.64-2.618c.88 0 1.654.437 2.138 1.082v-.008l.501.671.501-.671v.008A2.676 2.676 0 0 1 17.64 6.29a2.629 2.629 0 0 1 2.64 2.618c0 .305-.053.602-.15.873h2.789c.972 0 1.76.78 1.76 1.745v2.617a.876.876 0 0 1-.88.873zm-15.836 6.98h6.158v-6.98H7.962v6.98zm14.076 0v-6.98H15.88v6.98h6.158zm-9.677-13.96c-.486 0-.88.39-.88.872s.394.873.88.873.88-.391.88-.873a.876.876 0 0 0-.88-.873zm5.278 0c-.486 0-.88.39-.88.872s.394.873.88.873.88-.391.88-.873a.876.876 0 0 0-.88-.873zm-10.557 3.49v1.745h7.038v-1.745H7.082zm8.798 0v1.745h7.038v-1.745H15.88z" fill="#FF7575"/></g><g transform="translate(38 106)"><circle fill="#FFF" cx="15" cy="15" r="15"/><path d="M23.798 15.016v6.98c0 .964-.788 1.745-1.76 1.745H7.962c-.972 0-1.76-.78-1.76-1.745v-6.98a.876.876 0 0 1-.88-.873v-2.617c0-.964.788-1.745 1.76-1.745h2.789a2.598 2.598 0 0 1-.15-.873 2.629 2.629 0 0 1 2.64-2.618c.88 0 1.654.437 2.138 1.082v-.008l.501.671.501-.671v.008A2.676 2.676 0 0 1 17.64 6.29a2.629 2.629 0 0 1 2.64 2.618c0 .305-.053.602-.15.873h2.789c.972 0 1.76.78 1.76 1.745v2.617a.876.876 0 0 1-.88.873zm-15.836 6.98h6.158v-6.98H7.962v6.98zm14.076 0v-6.98H15.88v6.98h6.158zm-9.677-13.96c-.486 0-.88.39-.88.872s.394.873.88.873.88-.391.88-.873a.876.876 0 0 0-.88-.873zm5.278 0c-.486 0-.88.39-.88.872s.394.873.88.873.88-.391.88-.873a.876.876 0 0 0-.88-.873zm-10.557 3.49v1.745h7.038v-1.745H7.082zm8.798 0v1.745h7.038v-1.745H15.88z" fill="#FF7575"/></g><g transform="translate(206 106)"><circle fill="#FFF" cx="15" cy="15" r="15"/><path d="M23.798 15.016v6.98c0 .964-.788 1.745-1.76 1.745H7.962c-.972 0-1.76-.78-1.76-1.745v-6.98a.876.876 0 0 1-.88-.873v-2.617c0-.964.788-1.745 1.76-1.745h2.789a2.598 2.598 0 0 1-.15-.873 2.629 2.629 0 0 1 2.64-2.618c.88 0 1.654.437 2.138 1.082v-.008l.501.671.501-.671v.008A2.676 2.676 0 0 1 17.64 6.29a2.629 2.629 0 0 1 2.64 2.618c0 .305-.053.602-.15.873h2.789c.972 0 1.76.78 1.76 1.745v2.617a.876.876 0 0 1-.88.873zm-15.836 6.98h6.158v-6.98H7.962v6.98zm14.076 0v-6.98H15.88v6.98h6.158zm-9.677-13.96c-.486 0-.88.39-.88.872s.394.873.88.873.88-.391.88-.873a.876.876 0 0 0-.88-.873zm5.278 0c-.486 0-.88.39-.88.872s.394.873.88.873.88-.391.88-.873a.876.876 0 0 0-.88-.873zm-10.557 3.49v1.745h7.038v-1.745H7.082zm8.798 0v1.745h7.038v-1.745H15.88z" fill="#FF7575"/></g><path d="M245 60c4.973 0 9-4.027 9-9s-4.027-9-9-9-9 4.027-9 9 4.027 9 9 9zm-.5 4c-5.84 0-17.5 3.127-17.5 9.333V78h35v-4.667C262 67.127 250.34 64 244.5 64zM193 165c4.973 0 9-4.027 9-9s-4.027-9-9-9-9 4.027-9 9 4.027 9 9 9zm-.5 4c-5.84 0-17.5 3.127-17.5 9.333V183h35v-4.667c0-6.206-11.66-9.333-17.5-9.333zM78 165c4.973 0 9-4.027 9-9s-4.027-9-9-9-9 4.027-9 9 4.027 9 9 9zm-.5 4c-5.84 0-17.5 3.127-17.5 9.333V183h35v-4.667C95 172.127 83.34 169 77.5 169zM18 60c4.973 0 9-4.027 9-9s-4.027-9-9-9-9 4.027-9 9 4.027 9 9 9zm-.5 4C11.66 64 0 67.127 0 73.333V78h35v-4.667C35 67.127 23.34 64 17.5 64z" fill="#4C4C4C"/></g></svg>