<svg width="40" height="39" viewBox="0 0 40 39" xmlns="http://www.w3.org/2000/svg"><title>8BF9C6DB-361F-47AB-A7C7-225F461C3BDE</title><g fill="#FF7575" fill-rule="evenodd"><path d="M33.727 6.181c0 .97-.79 1.755-1.764 1.755a1.76 1.76 0 0 1-1.764-1.755V1.763c0-.969.79-1.755 1.764-1.755a1.76 1.76 0 0 1 1.764 1.755v4.418zM9.892 1.755A1.76 1.76 0 0 0 8.128 0a1.76 1.76 0 0 0-1.764 1.755v4.418c0 .97.79 1.755 1.764 1.755a1.76 1.76 0 0 0 1.764-1.755V1.755zM35.86 4v1.798c0 2.138-1.748 3.878-3.896 3.878-2.149 0-3.896-1.74-3.896-3.878V4H12.024v1.79c0 2.138-1.747 3.878-3.896 3.878-2.148 0-3.896-1.74-3.896-3.878V4H0v34.682h40V4h-4.14zm.258 31.136H3.883V13.644h32.234v21.492z"/><text font-family="NotoSansCJKjp-Black, Noto Sans CJK JP" font-size="16" font-weight="700"><tspan x="10.256" y="31">30</tspan></text></g></svg>