<svg width="48" height="48" viewBox="0 0 48 48" xmlns="http://www.w3.org/2000/svg"><title>C02CC3EE-920C-45DE-A5CC-EF510889A23D</title><g fill="none" fill-rule="evenodd"><ellipse fill="#F44336" cx="24" cy="24" rx="24" ry="24"/><g fill="#FFF" opacity=".87"><path d="M23.242 16.753h-8.838a2.166 2.166 0 0 0-2.158 2.168l-.01 13.011c0 1.193.975 2.169 2.168 2.169h17.348a2.175 2.175 0 0 0 2.168-2.169v-7.678c-.924.814-1.691 1.609-2.083 2.438-1.393-2.944-7.513-5.455-8.595-9.94zm5.207 6.4l-5.371 3.358-8.674-5.421v-2.17l8.674 5.422 3.89-2.432c.492.428.994.84 1.481 1.243z"/><path d="M31.837 14.512c-1.404-2.864-5.543-2.145-6.2.684-1.07 4.605 4.998 6.698 6.2 9.237 1.2-2.539 7.27-4.632 6.2-9.237-.658-2.83-4.797-3.548-6.2-.684z"/></g></g></svg>