<svg width="260" height="105" viewBox="0 0 260 105" xmlns="http://www.w3.org/2000/svg"><title>065BB5F9-5E0E-443C-86BC-4F9D035E0562</title><g fill="none" fill-rule="evenodd"><path d="M63 54.195c27.044-31.41 115.684-33.099 146.197 0" stroke="#D4D4D4" stroke-width="3"/><path fill="#D8D8D8" d="M212.36 57.638l-20.749-5.341 12.573-14.463z"/><path d="M243 72c4.972 0 9-4.028 9-9s-4.028-9-9-9-9 4.028-9 9 4.028 9 9 9zm-19.75-4.25V61h-4.5v6.75H212v4.5h6.75V79h4.5v-6.75H230v-4.5h-6.75zM242.5 76c-5.84 0-17.5 3.127-17.5 9.333V90h35v-4.667C260 79.127 248.34 76 242.5 76zM30 45C13.44 45 0 58.44 0 75c0 16.56 13.44 30 30 30 16.56 0 30-13.44 30-30 0-16.56-13.44-30-30-30zm0 9c4.98 0 9 4.02 9 9s-4.02 9-9 9-9-4.02-9-9 4.02-9 9-9zm0 43c-7.5 0-14.13-3.86-18-9.711C12.09 81.287 24 78 30 78c5.97 0 17.91 3.287 18 9.289C44.13 93.139 37.5 97 30 97z" fill-opacity=".7" fill="#000"/><g transform="translate(105)"><circle fill="#FFF" cx="31" cy="31" r="31"/><path d="M49.182 31.033v14.426c0 1.992-1.628 3.607-3.637 3.607h-29.09c-2.009 0-3.637-1.615-3.637-3.607V31.033A1.81 1.81 0 0 1 11 29.23v-5.41c0-1.992 1.628-3.607 3.636-3.607H20.4a5.369 5.369 0 0 1-.31-1.803c0-2.988 2.443-5.41 5.455-5.41 1.819 0 3.419.902 4.419 2.236v-.018L31 16.607l1.036-1.389v.018c1-1.334 2.6-2.236 4.419-2.236 3.012 0 5.454 2.422 5.454 5.41 0 .631-.109 1.244-.309 1.803h5.764c2.008 0 3.636 1.615 3.636 3.607v5.41a1.81 1.81 0 0 1-1.818 1.803zM16.455 45.459h12.727V31.033H16.455v14.426zm29.09 0V31.033H32.818v14.426h12.727zm-20-28.852a1.81 1.81 0 0 0-1.818 1.803 1.81 1.81 0 0 0 1.818 1.803 1.81 1.81 0 0 0 1.819-1.803 1.81 1.81 0 0 0-1.819-1.803zm10.91 0a1.81 1.81 0 0 0-1.819 1.803 1.81 1.81 0 0 0 1.819 1.803 1.81 1.81 0 0 0 1.818-1.803 1.81 1.81 0 0 0-1.818-1.803zM14.636 23.82v3.606h14.546V23.82H14.636zm18.182 0v3.606h14.546V23.82H32.818z" fill="#FF7575"/></g><path d="M114.581 48c-7.196 2.085-12.571 5.743-12.571 5.743M111.581 39c-4.664.643-8.805 2.99-8.805 2.99" stroke="#FF7575" stroke-width="2"/></g></svg>